<svg xmlns="http://www.w3.org/2000/svg" viewBox="0 0 192 192">
  <defs>
    <linearGradient id="grad" x1="0%" y1="0%" x2="100%" y2="100%">
      <stop offset="0%" style="stop-color:#6366f1"/>
      <stop offset="100%" style="stop-color:#8b5cf6"/>
    </linearGradient>
  </defs>
  <rect width="192" height="192" rx="32" fill="url(#grad)"/>
  <path d="M96 40c-8.8 0-16 7.2-16 16v20H60c-11 0-20 9-20 20v40c0 11 9 20 20 20h72c11 0 20-9 20-20V96c0-11-9-20-20-20h-20V56c0-8.8-7.2-16-16-16z" fill="#fff" fill-opacity="0.9"/>
  <circle cx="96" cy="115" r="8" fill="url(#grad)"/>
  <path d="M96 125v15" stroke="url(#grad)" stroke-width="5" stroke-linecap="round"/>
  <path d="M76 60h40" stroke="#fff" stroke-width="4" stroke-linecap="round"/>
  <path d="M60 75h72" stroke="#fff" stroke-width="3" stroke-linecap="round" stroke-opacity="0.5"/>
</svg>
